<svg xmlns="http://www.w3.org/2000/svg" width="100%" height="100%" viewBox="0 0 513 78" fill="none" preserveAspectRatio="xMidYMid">
  <path d="M49.8123 78L0 62.9304L19.7916 10L63 23.0708L49.8123 78Z" fill="#008024"/>
  <path d="M30.8918 25.2272C30.4886 26.5475 29.0928 27.2937 27.7719 26.8907C26.4523 26.4886 25.7079 25.0933 26.1083 23.7726C26.5112 22.4511 27.9059 21.7064 29.227 22.1095C30.5465 22.5114 31.2922 23.9063 30.8918 25.2272Z" fill="white"/>
  <path d="M48.343 30.952C48.132 31.0141 47.9017 31.0181 47.6756 30.9512C47.0652 30.7682 46.7191 30.1381 46.9052 29.5379C51.6476 14.275 49.6604 4.68523 45.383 3.41229C43.2782 2.78391 40.5357 4.15919 37.8597 7.18299C35.5508 9.79339 32.1846 14.8803 29.2633 24.2857C29.0764 24.8834 28.4305 25.2189 27.8208 25.0384C27.2104 24.8554 26.864 24.2241 27.0505 23.6251C30.9992 10.9133 36.8651 2.5117 42.7915 1.17649C45.0723 0.657085 47.2108 1.29292 48.809 2.96781C52.9512 7.30453 53.0676 17.4851 49.1177 30.1974C49.0006 30.5745 48.7015 30.8465 48.343 30.952Z" fill="#252C61"/>
  <path d="M20 76L78 69.2997L72.5837 13L27.1596 14.5341L20 76Z" fill="white"/>
  <path d="M27 73L79 71.2318L73.6209 15L28.5169 16.5338L27 73Z" fill="#AEAEAE"/>
  <path d="M59.0015 26.5851C59.0481 27.9653 60.2058 29.0467 61.585 28.9984C62.9666 28.9521 64.0462 27.7954 63.9985 26.4149C63.9515 25.0348 62.7952 23.9548 61.4149 24.0015C60.0357 24.0498 58.9544 25.2061 59.0015 26.5851Z" fill="white"/>
  <path d="M39.0014 27.5849C39.048 28.965 40.2058 30.0452 41.5857 29.9985C42.9655 29.9517 44.0453 28.795 43.9985 27.4148C43.9519 26.0347 42.7941 24.9545 41.4155 25.0015C40.0353 25.0494 38.9556 26.2062 39.0014 27.5849Z" fill="white"/>
  <path d="M40.9007 27.9628C40.4256 27.8378 40.07 27.4237 40.0514 26.9188C39.4098 8.59008 44.8843 0.1927 50.5953 0.00344822C53.7812 -0.103809 56.7624 2.29428 58.9893 6.75198C61.3312 11.4389 62.7176 18.1495 62.9993 26.1563C63.0213 26.7747 62.5226 27.2927 61.8886 27.3145C61.2543 27.3375 60.7207 26.8515 60.6974 26.233C60.1456 10.4542 55.1276 2.0947 50.6732 2.2427C48.4841 2.31495 46.3523 4.46265 44.8269 8.13246C43.5101 11.3022 42.011 17.1204 42.3529 26.8434C42.374 27.4601 41.8777 27.9789 41.2413 28L40.9007 27.9628Z" fill="#252C61"/>
  <path d="M120.472 27.544V61H116.104V45.832H99.064V61H94.696V27.544H99.064V42.232H116.104V27.544H120.472ZM126.298 47.752C126.298 45.064 126.842 42.712 127.93 40.696C129.018 38.648 130.506 37.064 132.394 35.944C134.314 34.824 136.442 34.264 138.778 34.264C141.082 34.264 143.082 34.76 144.778 35.752C146.474 36.744 147.738 37.992 148.57 39.496V34.696H152.986V61H148.57V56.104C147.706 57.64 146.41 58.92 144.682 59.944C142.986 60.936 141.002 61.432 138.73 61.432C136.394 61.432 134.282 60.856 132.394 59.704C130.506 58.552 129.018 56.936 127.93 54.856C126.842 52.776 126.298 50.408 126.298 47.752ZM148.57 47.8C148.57 45.816 148.17 44.088 147.37 42.616C146.57 41.144 145.482 40.024 144.106 39.256C142.762 38.456 141.274 38.056 139.642 38.056C138.01 38.056 136.522 38.44 135.178 39.208C133.834 39.976 132.762 41.096 131.962 42.568C131.162 44.04 130.762 45.768 130.762 47.752C130.762 49.768 131.162 51.528 131.962 53.032C132.762 54.504 133.834 55.64 135.178 56.44C136.522 57.208 138.01 57.592 139.642 57.592C141.274 57.592 142.762 57.208 144.106 56.44C145.482 55.64 146.57 54.504 147.37 53.032C148.17 51.528 148.57 49.784 148.57 47.8ZM173.184 34.216C176.384 34.216 178.976 35.192 180.96 37.144C182.944 39.064 183.936 41.848 183.936 45.496V61H179.616V46.12C179.616 43.496 178.96 41.496 177.648 40.12C176.336 38.712 174.544 38.008 172.272 38.008C169.968 38.008 168.128 38.728 166.752 40.168C165.408 41.608 164.736 43.704 164.736 46.456V61H160.368V34.696H164.736V38.44C165.6 37.096 166.768 36.056 168.24 35.32C169.744 34.584 171.392 34.216 173.184 34.216ZM189.439 47.752C189.439 45.064 189.983 42.712 191.071 40.696C192.159 38.648 193.647 37.064 195.535 35.944C197.455 34.824 199.599 34.264 201.967 34.264C204.015 34.264 205.919 34.744 207.679 35.704C209.439 36.632 210.783 37.864 211.711 39.4V25.48H216.127V61H211.711V56.056C210.847 57.624 209.567 58.92 207.871 59.944C206.175 60.936 204.191 61.432 201.919 61.432C199.583 61.432 197.455 60.856 195.535 59.704C193.647 58.552 192.159 56.936 191.071 54.856C189.983 52.776 189.439 50.408 189.439 47.752ZM211.711 47.8C211.711 45.816 211.311 44.088 210.511 42.616C209.711 41.144 208.623 40.024 207.247 39.256C205.903 38.456 204.415 38.056 202.783 38.056C201.151 38.056 199.663 38.44 198.319 39.208C196.975 39.976 195.903 41.096 195.103 42.568C194.303 44.04 193.903 45.768 193.903 47.752C193.903 49.768 194.303 51.528 195.103 53.032C195.903 54.504 196.975 55.64 198.319 56.44C199.663 57.208 201.151 57.592 202.783 57.592C204.415 57.592 205.903 57.208 207.247 56.44C208.623 55.64 209.711 54.504 210.511 53.032C211.311 51.528 211.711 49.784 211.711 47.8ZM255.141 34.216C257.189 34.216 259.013 34.648 260.613 35.512C262.213 36.344 263.477 37.608 264.405 39.304C265.333 41 265.797 43.064 265.797 45.496V61H261.477V46.12C261.477 43.496 260.821 41.496 259.509 40.12C258.229 38.712 256.485 38.008 254.277 38.008C252.005 38.008 250.197 38.744 248.853 40.216C247.509 41.656 246.837 43.752 246.837 46.504V61H242.517V46.12C242.517 43.496 241.861 41.496 240.549 40.12C239.269 38.712 237.525 38.008 235.317 38.008C233.045 38.008 231.237 38.744 229.893 40.216C228.549 41.656 227.877 43.752 227.877 46.504V61H223.509V34.696H227.877V38.488C228.741 37.112 229.893 36.056 231.333 35.32C232.805 34.584 234.421 34.216 236.181 34.216C238.389 34.216 240.341 34.712 242.037 35.704C243.733 36.696 244.997 38.152 245.829 40.072C246.565 38.216 247.781 36.776 249.477 35.752C251.173 34.728 253.061 34.216 255.141 34.216ZM271.33 47.752C271.33 45.064 271.874 42.712 272.962 40.696C274.05 38.648 275.538 37.064 277.426 35.944C279.346 34.824 281.474 34.264 283.81 34.264C286.114 34.264 288.114 34.76 289.81 35.752C291.506 36.744 292.77 37.992 293.602 39.496V34.696H298.018V61H293.602V56.104C292.738 57.64 291.442 58.92 289.714 59.944C288.018 60.936 286.034 61.432 283.762 61.432C281.426 61.432 279.314 60.856 277.426 59.704C275.538 58.552 274.05 56.936 272.962 54.856C271.874 52.776 271.33 50.408 271.33 47.752ZM293.602 47.8C293.602 45.816 293.202 44.088 292.402 42.616C291.602 41.144 290.514 40.024 289.138 39.256C287.794 38.456 286.306 38.056 284.674 38.056C283.042 38.056 281.554 38.44 280.21 39.208C278.866 39.976 277.794 41.096 276.994 42.568C276.194 44.04 275.794 45.768 275.794 47.752C275.794 49.768 276.194 51.528 276.994 53.032C277.794 54.504 278.866 55.64 280.21 56.44C281.554 57.208 283.042 57.592 284.674 57.592C286.306 57.592 287.794 57.208 289.138 56.44C290.514 55.64 291.602 54.504 292.402 53.032C293.202 51.528 293.602 49.784 293.602 47.8ZM303.767 47.752C303.767 45.064 304.311 42.712 305.399 40.696C306.487 38.648 307.975 37.064 309.863 35.944C311.783 34.824 313.927 34.264 316.295 34.264C318.343 34.264 320.247 34.744 322.007 35.704C323.767 36.632 325.111 37.864 326.039 39.4V25.48H330.455V61H326.039V56.056C325.175 57.624 323.895 58.92 322.199 59.944C320.503 60.936 318.519 61.432 316.247 61.432C313.911 61.432 311.783 60.856 309.863 59.704C307.975 58.552 306.487 56.936 305.399 54.856C304.311 52.776 303.767 50.408 303.767 47.752ZM326.039 47.8C326.039 45.816 325.639 44.088 324.839 42.616C324.039 41.144 322.951 40.024 321.575 39.256C320.231 38.456 318.743 38.056 317.111 38.056C315.479 38.056 313.991 38.44 312.647 39.208C311.303 39.976 310.231 41.096 309.431 42.568C308.631 44.04 308.231 45.768 308.231 47.752C308.231 49.768 308.631 51.528 309.431 53.032C310.231 54.504 311.303 55.64 312.647 56.44C313.991 57.208 315.479 57.592 317.111 57.592C318.743 57.592 320.231 57.208 321.575 56.44C322.951 55.64 324.039 54.504 324.839 53.032C325.639 51.528 326.039 49.784 326.039 47.8ZM361.837 46.84C361.837 47.672 361.789 48.552 361.693 49.48H340.669C340.829 52.072 341.709 54.104 343.309 55.576C344.941 57.016 346.909 57.736 349.213 57.736C351.101 57.736 352.669 57.304 353.917 56.44C355.197 55.544 356.093 54.36 356.605 52.888H361.309C360.605 55.416 359.197 57.48 357.085 59.08C354.973 60.648 352.349 61.432 349.213 61.432C346.717 61.432 344.477 60.872 342.493 59.752C340.541 58.632 339.005 57.048 337.885 55C336.765 52.92 336.205 50.52 336.205 47.8C336.205 45.08 336.749 42.696 337.837 40.648C338.925 38.6 340.445 37.032 342.397 35.944C344.381 34.824 346.653 34.264 349.213 34.264C351.709 34.264 353.917 34.808 355.837 35.896C357.757 36.984 359.229 38.488 360.253 40.408C361.309 42.296 361.837 44.44 361.837 46.84ZM357.325 45.928C357.325 44.264 356.957 42.84 356.221 41.656C355.485 40.44 354.477 39.528 353.197 38.92C351.949 38.28 350.557 37.96 349.021 37.96C346.813 37.96 344.925 38.664 343.357 40.072C341.821 41.48 340.941 43.432 340.717 45.928H357.325ZM384.767 39.592C385.663 38.024 386.975 36.744 388.703 35.752C390.431 34.76 392.399 34.264 394.607 34.264C396.975 34.264 399.103 34.824 400.991 35.944C402.879 37.064 404.367 38.648 405.455 40.696C406.543 42.712 407.087 45.064 407.087 47.752C407.087 50.408 406.543 52.776 405.455 54.856C404.367 56.936 402.863 58.552 400.943 59.704C399.055 60.856 396.943 61.432 394.607 61.432C392.335 61.432 390.335 60.936 388.607 59.944C386.911 58.952 385.631 57.688 384.767 56.152V61H380.399V25.48H384.767V39.592ZM402.623 47.752C402.623 45.768 402.223 44.04 401.423 42.568C400.623 41.096 399.535 39.976 398.159 39.208C396.815 38.44 395.327 38.056 393.695 38.056C392.095 38.056 390.607 38.456 389.231 39.256C387.887 40.024 386.799 41.16 385.967 42.664C385.167 44.136 384.767 45.848 384.767 47.8C384.767 49.784 385.167 51.528 385.967 53.032C386.799 54.504 387.887 55.64 389.231 56.44C390.607 57.208 392.095 57.592 393.695 57.592C395.327 57.592 396.815 57.208 398.159 56.44C399.535 55.64 400.623 54.504 401.423 53.032C402.223 51.528 402.623 49.768 402.623 47.752ZM411.205 47.752C411.205 45.064 411.749 42.712 412.837 40.696C413.925 38.648 415.413 37.064 417.301 35.944C419.221 34.824 421.349 34.264 423.685 34.264C425.989 34.264 427.989 34.76 429.685 35.752C431.381 36.744 432.645 37.992 433.477 39.496V34.696H437.893V61H433.477V56.104C432.613 57.64 431.317 58.92 429.589 59.944C427.893 60.936 425.909 61.432 423.637 61.432C421.301 61.432 419.189 60.856 417.301 59.704C415.413 58.552 413.925 56.936 412.837 54.856C411.749 52.776 411.205 50.408 411.205 47.752ZM433.477 47.8C433.477 45.816 433.077 44.088 432.277 42.616C431.477 41.144 430.389 40.024 429.013 39.256C427.669 38.456 426.181 38.056 424.549 38.056C422.917 38.056 421.429 38.44 420.085 39.208C418.741 39.976 417.669 41.096 416.869 42.568C416.069 44.04 415.669 45.768 415.669 47.752C415.669 49.768 416.069 51.528 416.869 53.032C417.669 54.504 418.741 55.64 420.085 56.44C421.429 57.208 422.917 57.592 424.549 57.592C426.181 57.592 427.669 57.208 429.013 56.44C430.389 55.64 431.477 54.504 432.277 53.032C433.077 51.528 433.477 49.784 433.477 47.8ZM456.122 34.264C458.394 34.264 460.378 34.76 462.074 35.752C463.802 36.744 465.082 37.992 465.914 39.496V34.696H470.33V61.576C470.33 63.976 469.818 66.104 468.794 67.96C467.77 69.848 466.298 71.32 464.378 72.376C462.49 73.432 460.282 73.96 457.754 73.96C454.298 73.96 451.418 73.144 449.114 71.512C446.81 69.88 445.45 67.656 445.034 64.84H449.354C449.834 66.44 450.826 67.72 452.33 68.68C453.834 69.672 455.642 70.168 457.754 70.168C460.154 70.168 462.106 69.416 463.61 67.912C465.146 66.408 465.914 64.296 465.914 61.576V56.056C465.05 57.592 463.77 58.872 462.074 59.896C460.378 60.92 458.394 61.432 456.122 61.432C453.786 61.432 451.658 60.856 449.738 59.704C447.85 58.552 446.362 56.936 445.274 54.856C444.186 52.776 443.642 50.408 443.642 47.752C443.642 45.064 444.186 42.712 445.274 40.696C446.362 38.648 447.85 37.064 449.738 35.944C451.658 34.824 453.786 34.264 456.122 34.264ZM465.914 47.8C465.914 45.816 465.514 44.088 464.714 42.616C463.914 41.144 462.826 40.024 461.45 39.256C460.106 38.456 458.618 38.056 456.986 38.056C455.354 38.056 453.866 38.44 452.522 39.208C451.178 39.976 450.106 41.096 449.306 42.568C448.506 44.04 448.106 45.768 448.106 47.752C448.106 49.768 448.506 51.528 449.306 53.032C450.106 54.504 451.178 55.64 452.522 56.44C453.866 57.208 455.354 57.592 456.986 57.592C458.618 57.592 460.106 57.208 461.45 56.44C462.826 55.64 463.914 54.504 464.714 53.032C465.514 51.528 465.914 49.784 465.914 47.8ZM487.024 61.432C485.008 61.432 483.2 61.096 481.6 60.424C480 59.72 478.736 58.76 477.808 57.544C476.88 56.296 476.368 54.872 476.272 53.272H480.784C480.912 54.584 481.52 55.656 482.608 56.488C483.728 57.32 485.184 57.736 486.976 57.736C488.64 57.736 489.952 57.368 490.912 56.632C491.872 55.896 492.352 54.968 492.352 53.848C492.352 52.696 491.84 51.848 490.816 51.304C489.792 50.728 488.208 50.168 486.064 49.624C484.112 49.112 482.512 48.6 481.264 48.088C480.048 47.544 478.992 46.76 478.096 45.736C477.232 44.68 476.8 43.304 476.8 41.608C476.8 40.264 477.2 39.032 478 37.912C478.8 36.792 479.936 35.912 481.408 35.272C482.88 34.6 484.56 34.264 486.448 34.264C489.36 34.264 491.712 35 493.504 36.472C495.296 37.944 496.256 39.96 496.384 42.52H492.016C491.92 41.144 491.36 40.04 490.336 39.208C489.344 38.376 488 37.96 486.304 37.96C484.736 37.96 483.488 38.296 482.56 38.968C481.632 39.64 481.168 40.52 481.168 41.608C481.168 42.472 481.44 43.192 481.984 43.768C482.56 44.312 483.264 44.76 484.096 45.112C484.96 45.432 486.144 45.8 487.648 46.216C489.536 46.728 491.072 47.24 492.256 47.752C493.44 48.232 494.448 48.968 495.28 49.96C496.144 50.952 496.592 52.248 496.624 53.848C496.624 55.288 496.224 56.584 495.424 57.736C494.624 58.888 493.488 59.8 492.016 60.472C490.576 61.112 488.912 61.432 487.024 61.432Z" fill="#414141"/>
</svg>
